<svg xmlns="http://www.w3.org/2000/svg" id="Layer_1" data-name="Layer 1" viewBox="0 0 512 512"><defs><style>.cls-1{fill:#fff;}</style></defs><path class="cls-1" d="M437.45,278.49c17.42,30.94,35.6,58.51,49.06,88.21,22,48.55-14.7,103.59-68.71,104.44q-88.76,1.38-177.56.05c-55-.75-88.16-61-60.13-108.5,2.22-3.75,8.89-6.86,13.52-6.92,49.26-.55,98.52-.47,147.78-.46,48.77,0,79.65-23,93.55-69.78C435.39,284.1,436,282.71,437.45,278.49Z"/><path class="cls-1" d="M181.47,469.36c-34.21,0-68.87,3.81-102.33-.9C30.93,461.65,4.25,404.76,27.55,362q44.33-81.45,92.63-160.7c27.41-44.95,93.07-43.47,121,1.07,3.45,5.51,3.77,9.61.37,15.42-24.72,42.14-47.95,85.2-73.77,126.64-26.27,42.16-19.18,94.09,12.66,122.73A5.51,5.51,0,0,1,181.47,469.36Z"/><path class="cls-1" d="M146.37,154.66c16.39-28.22,30.42-54.94,46.84-80.1,29.68-45.51,96.67-46.13,125.38-.06,32.27,51.78,62.72,104.8,91.63,158.54,24.12,44.84-7.52,99.28-57.61,103.32-8,.65-13.14-1.08-17.49-8.82C311,284.65,286,242.22,261.64,199.45,238,157.92,199.39,141.33,153.18,153.3,151.77,153.67,150.33,153.88,146.37,154.66Z"/><!-- Code injected by live-server -->
</svg>